<?xml version="1.0" encoding="utf-8"?>
<!-- Generator: Adobe Illustrator 27.2.0, SVG Export Plug-In . SVG Version: 6.00 Build 0)  -->
<svg version="1.1" id="Layer_1" xmlns="http://www.w3.org/2000/svg" xmlns:xlink="http://www.w3.org/1999/xlink" x="0px" y="0px"
	 viewBox="0 0 256 213" style="enable-background:new 0 0 256 213;" xml:space="preserve">
<style type="text/css">
	.st0{fill:#58595B;}
	.st1{fill:url(#SVGID_1_);}
</style>
<g>
	<path class="st0" d="M20.9,144c-7.3,0-13.1-5.8-13.1-13.1c0-7.3,5.8-13.1,13.1-13.1c7.3,0,13.1,5.8,13.1,13.1
		C34,138.2,28.1,144,20.9,144z M20.9,122.8c-4.6,0-7.5,3.7-7.5,8.1c0,4.5,3,8.1,7.5,8.1c4.6,0,7.5-3.7,7.5-8.1
		C28.4,126.4,25.4,122.8,20.9,122.8z"/>
	<path class="st0" d="M54.4,122.8c-4.5,0-8.8,2.5-8.8,7.4V141c0,1.5-1.3,2.8-2.8,2.8c-1.5,0-2.8-1.3-2.8-2.8v-20.1
		c0-1.5,1.2-2.8,2.7-2.8c1.5,0,2.9,1.3,2.9,2.8v1.2c2.3-3,4.9-4.2,8.8-4.2c1.4,0,2.5,1.1,2.5,2.5S55.7,122.8,54.4,122.8z"/>
	<path class="st0" d="M81.4,132.6c0,0,0,0-17.7,0c0.3,3.8,3.4,6.7,7.5,6.7c2.9,0,5.4-1.2,7.4-3.1c0.4-0.4,0.9-0.5,1.4-0.5
		c0.7,0,1.4,0.3,1.8,0.9c0.3,0.4,0.5,0.9,0.5,1.3c0,0.6-0.3,1.3-0.8,1.8c-2.4,2.6-6.5,4.3-10.5,4.3c-7.3,0-13.1-5.8-13.1-13.1
		c0-7.3,5.7-13.1,12.9-13.1c7.2,0,12.6,5.6,12.6,13C83.5,131.9,82.5,132.6,81.4,132.6z M70.9,122.5c-3.8,0-6.5,2.5-7,6.2
		c8.6,0,14.1,0,14.1,0C77.4,125.2,74.7,122.5,70.9,122.5z"/>
	<path class="st0" d="M110.5,143.8c-1.5,0-2.8-1.2-2.8-2.7v-11.4c0-3.9-2.2-6.9-6.3-6.9c-4.2,0-6.6,3.3-6.6,6.9V141
		c0,1.5-1.2,2.7-2.7,2.7c-1.5,0-2.8-1.2-2.8-2.7v-20.1c0-1.5,1.2-2.9,2.7-2.9c1.5,0,2.8,1.3,2.8,2.9v1.3c1.7-2.5,4.9-4.3,8.2-4.3
		c6.5,0,10.3,5,10.3,11.7V141C113.2,142.6,112,143.8,110.5,143.8z"/>
	<path class="st0" d="M124,114.6c-1.7,0-3.1-1.4-3.1-3.1c0-1.7,1.4-3.1,3.1-3.1c1.7,0,3.1,1.4,3.1,3.1
		C127.2,113.2,125.7,114.6,124,114.6z M124,143.8c-1.5,0-2.7-1.3-2.7-2.8v-20.1c0-1.5,1.2-2.8,2.7-2.8c1.5,0,2.8,1.3,2.8,2.8V141
		C126.8,142.5,125.6,143.8,124,143.8z"/>
	<path class="st0" d="M148.6,123.2h-4.8V141c0,1.5-1.3,2.7-2.8,2.7c-1.5,0-2.8-1.2-2.8-2.7v-17.8H134c-1.3,0-2.3-1.1-2.3-2.3
		c0-1.3,1-2.3,2.3-2.3h4.2v-5.4c0-1.5,1.3-2.7,2.8-2.7c1.5,0,2.8,1.2,2.8,2.7v5.4h4.8c1.3,0,2.3,1,2.3,2.3
		C150.9,122.1,149.9,123.2,148.6,123.2z"/>
	<path class="st0" d="M169.8,122.8c-4.5,0-8.8,2.5-8.8,7.4V141c0,1.5-1.3,2.8-2.8,2.8c-1.5,0-2.8-1.3-2.8-2.8v-20.1
		c0-1.5,1.2-2.8,2.7-2.8c1.5,0,2.9,1.3,2.9,2.8v1.2c2.3-3,4.9-4.2,8.8-4.2c1.4,0,2.5,1.1,2.5,2.5S171.2,122.8,169.8,122.8z"/>
	<path class="st0" d="M194.5,143.8c-1.5,0-2.8-1.3-2.8-2.8v-0.5c-1.5,2.4-4.7,3.5-7.7,3.5c-5.1,0-9.4-3.6-9.4-8.4
		c0-5.3,4.2-8.3,9.6-8.3c3,0,5.8,0.9,7.7,2.6v-2.2c0-3.8-2.1-5.2-6.7-5.2c-2.7,0-4.9,0.6-7,1.5c-0.3,0.1-0.6,0.2-1,0.2
		c-0.9,0-1.6-0.5-2-1.3c-0.1-0.3-0.2-0.6-0.2-0.9c0-0.8,0.5-1.7,1.3-2.1c2.9-1.7,7-2.1,9.3-2.1c7,0,11.8,2.7,11.8,10.1V141
		C197.3,142.5,196.1,143.8,194.5,143.8z M185.7,131.6c-2.7,0-5.7,1-5.7,4c0,3,3,4.1,5.6,4.1c2.9,0,6.1-1.3,6.1-4.1
		C191.7,132.4,188.5,131.6,185.7,131.6z"/>
	<path class="st0" d="M241.9,143.8c-1.5,0-2.7-1.3-2.7-2.8v-11.3c0-3.9-1.7-6.9-5.8-6.9c-4.1,0-6.2,3.1-6.2,6.7V141
		c0,1.5-1.2,2.8-2.7,2.8c-1.5,0-2.9-1.3-2.9-2.8v-11.3c0-3.9-1.7-6.9-5.8-6.9c-4.2,0-6.2,3.3-6.2,6.9V141c0,1.5-1.3,2.8-2.8,2.8
		c-1.5,0-2.7-1.3-2.7-2.8v-11.4v-8.7c0-1.5,1.3-2.9,2.8-2.9c1.5,0,2.8,1.3,2.8,2.9v1.2c1.7-2.5,4.3-4.3,7.7-4.3c4,0,6.8,1.9,8.3,4.9
		c1.6-2.9,5.2-4.9,9.2-4.9c7,0,10.1,4.8,10.1,11.5V141C244.7,142.5,243.5,143.8,241.9,143.8z"/>
</g>
<g>
	<path class="st0" d="M46.4,163.6h-3.2v11.7c0,1-0.8,1.8-1.8,1.8c-1,0-1.8-0.8-1.8-1.8v-11.7h-2.7c-0.8,0-1.5-0.7-1.5-1.5
		c0-0.8,0.7-1.5,1.5-1.5h2.7v-5.4c0-1,0.8-1.8,1.8-1.8c1,0,1.8,0.8,1.8,1.8v5.4h3.2c0.8,0,1.5,0.7,1.5,1.5
		C47.9,162.9,47.2,163.6,46.4,163.6z"/>
	<path class="st0" d="M60.7,163.3c-3,0-5.8,1.6-5.8,4.9v7.1c0,1-0.8,1.8-1.8,1.8c-1,0-1.8-0.8-1.8-1.8V162c0-1,0.8-1.8,1.8-1.8
		s1.9,0.8,1.9,1.8v0.8c1.5-2,3.2-2.8,5.8-2.8c0.9,0,1.6,0.7,1.6,1.6C62.3,162.6,61.6,163.3,60.7,163.3z"/>
	<path class="st0" d="M78.9,169.8c0,0,0,0-11.6,0c0.2,2.5,2.2,4.4,4.9,4.4c1.9,0,3.6-0.8,4.9-2.1c0.3-0.3,0.6-0.3,0.9-0.3
		c0.5,0,0.9,0.2,1.2,0.6c0.2,0.3,0.3,0.6,0.3,0.9c0,0.4-0.2,0.9-0.5,1.2c-1.6,1.7-4.2,2.8-6.9,2.8c-4.8,0-8.6-3.8-8.6-8.6
		c0-4.8,3.7-8.6,8.5-8.6c4.7,0,8.3,3.7,8.3,8.5C80.2,169.3,79.6,169.8,78.9,169.8z M71.9,163.1c-2.5,0-4.2,1.7-4.6,4.1
		c5.7,0,9.3,0,9.3,0C76.2,164.9,74.4,163.1,71.9,163.1z"/>
	<path class="st0" d="M93.4,177.3c-2.1,0-4.4-1.2-5.4-2.9v8c0,1-0.8,1.8-1.8,1.8c-1,0-1.8-0.8-1.8-1.8V162c0-1,0.8-1.8,1.8-1.8
		c1,0,1.8,0.8,1.8,1.8v0.9c1.1-1.7,3.3-2.9,5.4-2.9c4.8,0,8.2,3.7,8.2,8.6C101.6,173.6,98.3,177.3,93.4,177.3z M93,163.3
		c-3,0-4.9,2.3-4.9,5.3c0,3,1.9,5.3,4.9,5.3c3,0,5-2.4,5-5.3C97.9,165.7,96,163.3,93,163.3z"/>
	<path class="st0" d="M115.4,163.3c-3,0-5.8,1.6-5.8,4.9v7.1c0,1-0.8,1.8-1.8,1.8c-1,0-1.8-0.8-1.8-1.8V162c0-1,0.8-1.8,1.8-1.8
		c1,0,1.9,0.8,1.9,1.8v0.8c1.5-2,3.2-2.8,5.8-2.8c0.9,0,1.6,0.7,1.6,1.6C117,162.6,116.3,163.3,115.4,163.3z"/>
	<path class="st0" d="M126.8,177.3c-4.8,0-8.6-3.8-8.6-8.6c0-4.8,3.8-8.6,8.6-8.6c4.8,0,8.6,3.8,8.6,8.6
		C135.4,173.4,131.5,177.3,126.8,177.3z M126.8,163.3c-3,0-5,2.4-5,5.3c0,2.9,2,5.3,5,5.3c3,0,5-2.4,5-5.3
		C131.7,165.7,129.8,163.3,126.8,163.3z"/>
	<path class="st0" d="M145.3,177.3c-1.8,0-4.2-0.6-6-1.7c-0.6-0.3-0.9-0.9-0.9-1.4c0-0.2,0.1-0.4,0.1-0.6c0.2-0.5,0.6-0.9,1.2-0.9
		c0.2,0,0.5,0.1,0.8,0.2c1.4,0.8,3,1.3,4.6,1.3c1.8,0,3.8-0.5,3.8-2c0-1.1-1-1.5-4.8-2.9c-3.2-1.1-4.8-2.5-4.8-4.9
		c0-2.8,2.8-4.6,6.4-4.6c2.5,0,4.1,0.5,5.6,1.3c0.6,0.3,1,0.8,1,1.4c0,0.2,0,0.3-0.1,0.5c-0.2,0.6-0.8,1-1.4,1c-0.2,0-0.4,0-0.5-0.1
		c-1.4-0.6-2.8-1-4.3-1c-2,0-3.2,0.5-3.2,1.7c0,1.2,1,1.5,3.8,2.4c3.4,1.1,5.8,2.3,5.8,5.1C152.4,175,149.9,177.3,145.3,177.3z"/>
	<path class="st0" d="M166.1,163.6H163v11.7c0,1-0.8,1.8-1.8,1.8c-1,0-1.8-0.8-1.8-1.8v-11.7h-2.7c-0.8,0-1.5-0.7-1.5-1.5
		c0-0.8,0.7-1.5,1.5-1.5h2.7v-5.4c0-1,0.8-1.8,1.8-1.8c1,0,1.8,0.8,1.8,1.8v5.4h3.2c0.8,0,1.5,0.7,1.5,1.5
		C167.6,162.9,166.9,163.6,166.1,163.6z"/>
	<path class="st0" d="M173,156.1c-1.1,0-2-0.9-2-2c0-1.1,0.9-2.1,2-2.1c1.1,0,2.1,0.9,2.1,2.1C175.1,155.2,174.1,156.1,173,156.1z
		 M173,177.1c-1,0-1.8-0.8-1.8-1.8V162c0-1,0.8-1.8,1.8-1.8s1.8,0.8,1.8,1.8v13.2C174.8,176.3,174,177.1,173,177.1z"/>
	<path class="st0" d="M194.7,177.1c-1,0-1.8-0.8-1.8-1.8v-7.5c0-2.6-1.4-4.5-4.1-4.5c-2.8,0-4.4,2.1-4.4,4.5v7.4
		c0,1-0.8,1.8-1.8,1.8c-1,0-1.8-0.8-1.8-1.8v-13.2c0-1,0.8-1.9,1.8-1.9c1,0,1.8,0.9,1.8,1.9v0.8c1.1-1.7,3.2-2.9,5.4-2.9
		c4.3,0,6.8,3.3,6.8,7.7v7.6C196.5,176.3,195.7,177.1,194.7,177.1z"/>
	<path class="st0" d="M204,156.1c-1.1,0-2-0.9-2-2c0-1.1,0.9-2.1,2-2.1c1.1,0,2.1,0.9,2.1,2.1C206.1,155.2,205.1,156.1,204,156.1z
		 M204,177.1c-1,0-1.8-0.8-1.8-1.8V162c0-1,0.8-1.8,1.8-1.8c1,0,1.8,0.8,1.8,1.8v13.2C205.8,176.3,205,177.1,204,177.1z"/>
	<path class="st0" d="M213.5,177.1c-1,0-1.8-0.8-1.8-1.8v-22c0-1,0.8-1.8,1.8-1.8c1,0,1.8,0.8,1.8,1.8v22
		C215.3,176.3,214.6,177.1,213.5,177.1z"/>
</g>
<g>
	<linearGradient id="SVGID_1_" gradientUnits="userSpaceOnUse" x1="86.7107" y1="47.7854" x2="165.069" y2="47.7854">
		<stop  offset="0" style="stop-color:#D80B8C"/>
		<stop  offset="8.167782e-02" style="stop-color:#B92C91"/>
		<stop  offset="0.1658" style="stop-color:#9F3995"/>
		<stop  offset="0.2539" style="stop-color:#8A3F98"/>
		<stop  offset="0.3458" style="stop-color:#78449A"/>
		<stop  offset="0.443" style="stop-color:#6B469C"/>
		<stop  offset="0.5493" style="stop-color:#63479D"/>
		<stop  offset="0.6816" style="stop-color:#60489D"/>
	</linearGradient>
	<path class="st1" d="M125.7,88c-22.2,0-40.2-18-40.2-40.2c0-22.2,18-40.2,40.2-40.2c22.2,0,40.2,18,40.2,40.2
		C165.9,70,147.8,88,125.7,88z M125.7,15.2c-18,0-32.6,14.6-32.6,32.6c0,18,14.6,32.6,32.6,32.6c18,0,32.6-14.6,32.6-32.6
		C158.2,29.8,143.6,15.2,125.7,15.2z M169.1,76.7c-2.6,0-4.6,2.1-4.6,4.6c0,2.6,2.1,4.6,4.6,4.6c2.6,0,4.6-2.1,4.6-4.6
		C173.7,78.8,171.7,76.7,169.1,76.7z"/>
</g>
<g>
	<path class="st0" d="M17.5,203.7c-2.2,0-6.7,0-6.7,0c-0.3,0-0.6-0.3-0.6-0.6V193c0-0.3,0.3-0.5,0.6-0.5h6.5c0.3,0,0.5,0.2,0.5,0.5
		c0,0.3-0.2,0.5-0.5,0.5h-6v3.9h3.4c0.3,0,0.5,0.2,0.5,0.5c0,0.3-0.2,0.5-0.5,0.5h-3.4v4.3h6.2c0.3,0,0.5,0.2,0.5,0.5
		C18.1,203.5,17.8,203.7,17.5,203.7z"/>
	<path class="st0" d="M28.1,203.7c-0.1,0.1-0.2,0.1-0.3,0.1c-0.2,0-0.3-0.1-0.4-0.2l-3.6-4.8l-3.6,4.8c-0.1,0.1-0.3,0.2-0.4,0.2
		c-0.1,0-0.2-0.1-0.3-0.1c-0.1-0.1-0.2-0.2-0.2-0.4c0-0.1,0.1-0.2,0.1-0.3l3.7-5l-3.7-4.9c-0.1-0.1-0.1-0.2-0.1-0.3
		c0-0.2,0.1-0.3,0.2-0.4c0.1-0.1,0.2-0.1,0.3-0.1c0.2,0,0.3,0.1,0.4,0.2l3.5,4.7l3.5-4.7c0.1-0.1,0.2-0.2,0.4-0.2
		c0.1,0,0.3,0.1,0.3,0.1c0.1,0.1,0.2,0.3,0.2,0.4c0,0.1,0,0.2-0.1,0.3l-3.7,4.9l3.7,5c0.1,0.1,0.1,0.2,0.1,0.3
		C28.3,203.5,28.2,203.6,28.1,203.7z"/>
	<path class="st0" d="M37.9,193.4h-3.6v9.8c0,0.3-0.3,0.6-0.6,0.6c-0.3,0-0.6-0.3-0.6-0.6v-9.8h-3.6c-0.3,0-0.5-0.2-0.5-0.5
		c0-0.3,0.2-0.5,0.5-0.5h8.2c0.3,0,0.5,0.2,0.5,0.5C38.5,193.2,38.2,193.4,37.9,193.4z"/>
	<path class="st0" d="M47.5,203.7c-2.2,0-6.7,0-6.7,0c-0.3,0-0.6-0.3-0.6-0.6V193c0-0.3,0.3-0.5,0.6-0.5h6.5c0.3,0,0.5,0.2,0.5,0.5
		c0,0.3-0.2,0.5-0.5,0.5h-6v3.9h3.4c0.3,0,0.5,0.2,0.5,0.5c0,0.3-0.2,0.5-0.5,0.5h-3.4v4.3h6.2c0.3,0,0.5,0.2,0.5,0.5
		C48,203.5,47.8,203.7,47.5,203.7z"/>
	<path class="st0" d="M58.4,203.8c-0.2,0-0.3-0.1-0.4-0.2l-6.6-9.3v9c0,0.3-0.3,0.5-0.5,0.5c-0.3,0-0.5-0.2-0.5-0.5v-10.5
		c0-0.3,0.2-0.5,0.5-0.5c0.2,0,0.3,0.1,0.4,0.2c0,0,5.4,7.7,6.6,9.3v-9c0-0.3,0.2-0.5,0.5-0.5c0.3,0,0.5,0.3,0.5,0.5v10.5
		C58.9,203.6,58.7,203.8,58.4,203.8z"/>
	<path class="st0" d="M65.6,203.7c0,0-2,0-3.1,0c-0.3,0-0.6-0.3-0.6-0.6V193c0-0.3,0.3-0.5,0.6-0.5h3.1c3.4,0,5.5,2.6,5.5,5.6
		C71,201.1,68.9,203.7,65.6,203.7z M65.5,193.4h-2.4v9.3h2.4c2.9,0,4.4-2.1,4.4-4.6C69.9,195.5,68.3,193.4,65.5,193.4z"/>
	<path class="st0" d="M80,203.7c-2.2,0-6.7,0-6.7,0c-0.3,0-0.6-0.3-0.6-0.6V193c0-0.3,0.3-0.5,0.6-0.5h6.5c0.3,0,0.5,0.2,0.5,0.5
		c0,0.3-0.2,0.5-0.5,0.5h-6v3.9h3.4c0.3,0,0.5,0.2,0.5,0.5c0,0.3-0.2,0.5-0.5,0.5h-3.4v4.3H80c0.3,0,0.5,0.2,0.5,0.5
		C80.5,203.5,80.3,203.7,80,203.7z"/>
	<path class="st0" d="M86.6,203.7c0,0-2,0-3.1,0c-0.3,0-0.6-0.3-0.6-0.6V193c0-0.3,0.3-0.5,0.6-0.5h3.1c3.4,0,5.5,2.6,5.5,5.6
		C92.1,201.1,90,203.7,86.6,203.7z M86.5,193.4h-2.4v9.3h2.4c2.9,0,4.4-2.1,4.4-4.6C90.9,195.5,89.4,193.4,86.5,193.4z"/>
	<path class="st0" d="M97.7,198.6h-3.2c-0.3,0-0.4-0.2-0.4-0.5c0-0.3,0.2-0.4,0.4-0.4h3.2c0.3,0,0.5,0.2,0.5,0.4
		C98.2,198.4,98,198.6,97.7,198.6z"/>
	<path class="st0" d="M107.6,198.5c0,0,0.1,0.2,2.2,4.6c0,0.1,0.1,0.2,0.1,0.2c0,0.2-0.1,0.4-0.3,0.5c-0.1,0-0.2,0.1-0.2,0.1
		c-0.2,0-0.4-0.1-0.5-0.3c-2.4-4.9-2.4-4.9-2.4-4.9h-4.1v4.6c0,0.3-0.3,0.5-0.6,0.5c-0.3,0-0.5-0.2-0.5-0.5V193
		c0-0.3,0.2-0.5,0.5-0.5h4.8c1.9,0,3.3,1.2,3.3,3.1C109.9,197,109,198.2,107.6,198.5z M106.7,193.4c-1.2,0-4.4,0-4.4,0v4.3h4.4
		c1.2,0,2.1-0.9,2.1-2.1C108.8,194.3,107.9,193.4,106.7,193.4z"/>
	<path class="st0" d="M119.7,203.7c-2.2,0-6.7,0-6.7,0c-0.3,0-0.6-0.3-0.6-0.6V193c0-0.3,0.3-0.5,0.6-0.5h6.5c0.3,0,0.5,0.2,0.5,0.5
		c0,0.3-0.2,0.5-0.5,0.5h-6v3.9h3.4c0.3,0,0.5,0.2,0.5,0.5c0,0.3-0.2,0.5-0.5,0.5h-3.4v4.3h6.2c0.3,0,0.5,0.2,0.5,0.5
		C120.2,203.5,120,203.7,119.7,203.7z"/>
	<path class="st0" d="M129.4,203.7c-2.2,0-6.5,0-6.5,0c-0.3,0-0.6-0.3-0.6-0.6v-10.3c0-0.3,0.3-0.6,0.6-0.6c0.3,0,0.6,0.3,0.6,0.6
		v9.8h6c0.3,0,0.5,0.2,0.5,0.5C129.9,203.4,129.6,203.7,129.4,203.7z"/>
	<path class="st0" d="M138.8,203.7c-2.2,0-6.7,0-6.7,0c-0.3,0-0.6-0.3-0.6-0.6V193c0-0.3,0.3-0.5,0.6-0.5h6.5c0.3,0,0.5,0.2,0.5,0.5
		c0,0.3-0.2,0.5-0.5,0.5h-6v3.9h3.4c0.3,0,0.5,0.2,0.5,0.5c0,0.3-0.2,0.5-0.5,0.5h-3.4v4.3h6.2c0.3,0,0.5,0.2,0.5,0.5
		C139.3,203.5,139.1,203.7,138.8,203.7z"/>
	<path class="st0" d="M151.3,203.8c-0.1,0-0.1,0.1-0.2,0.1c-0.2,0-0.4-0.1-0.5-0.3l-1.4-3.1h-5.8l-1.4,3.1c-0.1,0.2-0.3,0.3-0.5,0.3
		c-0.1,0-0.2,0-0.2-0.1c-0.2-0.1-0.3-0.3-0.3-0.5c0-0.1,0-0.2,0-0.2l4.8-10.5c0.1-0.1,0.2-0.3,0.5-0.3c0.3,0,0.4,0.2,0.5,0.3
		l4.8,10.5c0,0.1,0,0.2,0,0.2C151.6,203.5,151.5,203.7,151.3,203.8z M146.3,194l-2.5,5.4h4.9L146.3,194z"/>
	<path class="st0" d="M157.2,203.9c-1.3,0-3.5-0.5-4.5-1.7c-0.1-0.1-0.2-0.2-0.2-0.4c0-0.1,0-0.2,0.1-0.3c0.1-0.1,0.2-0.2,0.4-0.2
		c0.1,0,0.3,0.1,0.4,0.1c1.1,0.9,2.4,1.4,3.9,1.4c1.5,0,3.1-0.5,3.1-2.1c0-1.3-1.5-1.7-3.9-2.6c-1.5-0.6-3.2-1.2-3.2-3.1
		c0-2,1.8-2.9,4-2.9c1.4,0,3,0.5,3.9,1.2c0.2,0.1,0.2,0.3,0.2,0.4c0,0.1,0,0.2-0.1,0.3c-0.1,0.1-0.3,0.2-0.4,0.2
		c-0.1,0-0.2,0-0.3-0.1c-1-0.6-2-1-3.3-1c-1.6,0-2.9,0.6-2.9,1.9c0,1.3,1.5,1.8,3.7,2.5c2,0.7,3.5,1.4,3.5,3.2
		C161.4,202.9,159.5,203.9,157.2,203.9z"/>
	<path class="st0" d="M171.2,203.7c-2.2,0-6.7,0-6.7,0c-0.3,0-0.6-0.3-0.6-0.6V193c0-0.3,0.3-0.5,0.6-0.5h6.5c0.3,0,0.5,0.2,0.5,0.5
		c0,0.3-0.2,0.5-0.5,0.5h-6v3.9h3.4c0.3,0,0.5,0.2,0.5,0.5c0,0.3-0.2,0.5-0.5,0.5H165v4.3h6.2c0.3,0,0.5,0.2,0.5,0.5
		C171.7,203.5,171.5,203.7,171.2,203.7z"/>
	<path class="st0" d="M185.2,193.4h-3.6v9.8c0,0.3-0.3,0.6-0.6,0.6c-0.3,0-0.6-0.3-0.6-0.6v-9.8H177c-0.3,0-0.5-0.2-0.5-0.5
		c0-0.3,0.2-0.5,0.5-0.5h8.2c0.3,0,0.5,0.2,0.5,0.5C185.7,193.2,185.5,193.4,185.2,193.4z"/>
	<path class="st0" d="M195.1,203.8c-0.1,0-0.1,0.1-0.2,0.1c-0.2,0-0.4-0.1-0.5-0.3l-1.4-3.1h-5.8l-1.4,3.1c-0.1,0.2-0.3,0.3-0.5,0.3
		c-0.1,0-0.2,0-0.2-0.1c-0.2-0.1-0.3-0.3-0.3-0.5c0-0.1,0-0.2,0-0.2l4.8-10.5c0.1-0.1,0.2-0.3,0.5-0.3c0.3,0,0.4,0.2,0.5,0.3
		l4.8,10.5c0,0.1,0,0.2,0,0.2C195.4,203.5,195.3,203.7,195.1,203.8z M190.2,194l-2.5,5.4h4.9L190.2,194z"/>
	<path class="st0" d="M201.8,203.7h-4.2c-0.3,0-0.6-0.3-0.6-0.6V193c0-0.3,0.3-0.5,0.6-0.5h3.8c1.9,0,3.3,1.2,3.3,2.8
		c0,1-0.6,2-1.5,2.4c1.3,0.3,2.3,1.6,2.3,2.9C205.3,202.2,204.1,203.7,201.8,203.7z M201.5,193.4c0,0,0,0-3.3,0v3.8
		c2.7,0,3.3,0,3.3,0c1.3,0,2-0.8,2-1.9C203.5,194.2,202.7,193.4,201.5,193.4z M202.1,198.3c0,0-0.4,0-4,0v4.4c0,0,2.8,0,4,0
		c1.3,0,2.1-0.9,2.1-2.2C204.2,199.3,203.4,198.3,202.1,198.3z"/>
	<path class="st0" d="M214.5,203.7c-2.2,0-6.5,0-6.5,0c-0.3,0-0.6-0.3-0.6-0.6v-10.3c0-0.3,0.3-0.6,0.6-0.6c0.3,0,0.6,0.3,0.6,0.6
		v9.8h6c0.3,0,0.5,0.2,0.5,0.5C215,203.4,214.8,203.7,214.5,203.7z"/>
	<path class="st0" d="M224,203.7c-2.2,0-6.7,0-6.7,0c-0.3,0-0.6-0.3-0.6-0.6V193c0-0.3,0.3-0.5,0.6-0.5h6.5c0.3,0,0.5,0.2,0.5,0.5
		c0,0.3-0.2,0.5-0.5,0.5h-6v3.9h3.4c0.3,0,0.5,0.2,0.5,0.5c0,0.3-0.2,0.5-0.5,0.5h-3.4v4.3h6.2c0.3,0,0.5,0.2,0.5,0.5
		C224.5,203.5,224.3,203.7,224,203.7z"/>
	<path class="st0" d="M234.2,193.4h-3.6v9.8c0,0.3-0.3,0.6-0.6,0.6c-0.3,0-0.6-0.3-0.6-0.6v-9.8H226c-0.3,0-0.5-0.2-0.5-0.5
		c0-0.3,0.2-0.5,0.5-0.5h8.2c0.3,0,0.5,0.2,0.5,0.5C234.7,193.2,234.5,193.4,234.2,193.4z"/>
	<path class="st0" d="M240.2,203.9c-1.3,0-3.5-0.5-4.5-1.7c-0.1-0.1-0.2-0.2-0.2-0.4c0-0.1,0-0.2,0.1-0.3c0.1-0.1,0.2-0.2,0.4-0.2
		c0.1,0,0.3,0.1,0.4,0.1c1.1,0.9,2.4,1.4,3.9,1.4c1.5,0,3.1-0.5,3.1-2.1c0-1.3-1.5-1.7-3.9-2.6c-1.5-0.6-3.2-1.2-3.2-3.1
		c0-2,1.8-2.9,4-2.9c1.4,0,3,0.5,3.9,1.2c0.2,0.1,0.2,0.3,0.2,0.4c0,0.1,0,0.2-0.1,0.3c-0.1,0.1-0.3,0.2-0.4,0.2
		c-0.1,0-0.2,0-0.3-0.1c-1-0.6-2-1-3.3-1c-1.6,0-2.9,0.6-2.9,1.9c0,1.3,1.5,1.8,3.7,2.5c2,0.7,3.5,1.4,3.5,3.2
		C244.4,202.9,242.4,203.9,240.2,203.9z"/>
</g>
<g>
	<path class="st0" d="M246.9,109.2c0.6,0,1.2,0.2,1.8,0.5c0.6,0.3,1,0.7,1.3,1.3c0.3,0.6,0.5,1.2,0.5,1.8c0,0.6-0.2,1.2-0.5,1.8
		c-0.3,0.6-0.8,1-1.3,1.3c-0.6,0.3-1.2,0.5-1.8,0.5c-0.6,0-1.2-0.2-1.8-0.5c-0.6-0.3-1-0.8-1.3-1.3c-0.3-0.6-0.5-1.2-0.5-1.8
		c0-0.6,0.2-1.2,0.5-1.8c0.3-0.6,0.8-1,1.3-1.3C245.7,109.4,246.3,109.2,246.9,109.2z M246.9,109.9c-0.5,0-1,0.1-1.4,0.4
		c-0.5,0.2-0.8,0.6-1.1,1.1s-0.4,0.9-0.4,1.4c0,0.5,0.1,1,0.4,1.4c0.3,0.5,0.6,0.8,1.1,1.1c0.5,0.3,0.9,0.4,1.4,0.4
		c0.5,0,1-0.1,1.4-0.4c0.4-0.3,0.8-0.6,1.1-1.1c0.3-0.5,0.4-0.9,0.4-1.4c0-0.5-0.1-1-0.4-1.4c-0.3-0.5-0.6-0.8-1.1-1.1
		C247.9,110,247.4,109.9,246.9,109.9z M245.3,114.7v-3.8h0.8c0.7,0,1.1,0,1.2,0c0.3,0,0.5,0.1,0.6,0.2c0.1,0.1,0.3,0.2,0.4,0.4
		c0.1,0.2,0.1,0.3,0.1,0.5c0,0.3-0.1,0.5-0.3,0.7c-0.2,0.2-0.4,0.3-0.8,0.4c0.1,0,0.2,0.1,0.3,0.1c0.1,0.1,0.1,0.1,0.3,0.3
		c0,0,0.1,0.2,0.3,0.5l0.4,0.8h-0.9l-0.3-0.6c-0.2-0.4-0.4-0.7-0.5-0.8c-0.1-0.1-0.3-0.2-0.5-0.2h-0.2v1.5H245.3z M246.1,112.5h0.3
		c0.4,0,0.7,0,0.8-0.1c0.1,0,0.2-0.1,0.3-0.2c0.1-0.1,0.1-0.2,0.1-0.3c0-0.1,0-0.2-0.1-0.3c-0.1-0.1-0.1-0.1-0.3-0.2
		c-0.1,0-0.4-0.1-0.8-0.1h-0.3V112.5z"/>
</g>
</svg>
