<?xml version="1.0" encoding="utf-8"?>
<!-- Generator: Adobe Illustrator 27.2.0, SVG Export Plug-In . SVG Version: 6.00 Build 0)  -->
<svg version="1.1" id="Layer_1" xmlns="http://www.w3.org/2000/svg" xmlns:xlink="http://www.w3.org/1999/xlink" x="0px" y="0px"
	 viewBox="0 0 468.4 129" style="enable-background:new 0 0 468.4 129;" xml:space="preserve">
<style type="text/css">
	.st0{fill:#FFFFFF;}
	.st1{fill:#FFFFFF;stroke:#FFFFFF;stroke-width:0.7393;}
</style>
<path class="st0" d="M136,0v22.8c0,5.7-0.5,7.8,4.9,7.8c5.4,0,7.1-0.9,7.1-7.8L148,0h10.5v25.8c0,8.1-4.2,13.4-17.6,13.6
	c-13.5-0.2-17.6-5.5-17.6-13.6V0H136"/>
<path class="st0" d="M165.4,38.2V11h11.5v4.6h0.1c1.7-4.5,5.8-5.8,9.9-5.8c4.8,0,10.1,3.1,10.3,9.7v18.6h-11.6V21.9
	c0-2.8-1.3-4.1-3.9-4.1c-2.7,0-4.7,2.3-4.7,4.9v15.5H165.4"/>
<path class="st0" d="M204.4,0.3h13.3v7.4h-13.3V0.3z M204.4,11.3h13.3v26.8h-13.3V11.3z"/>
<path class="st0" d="M228.5,9.6V0.4h12.7v9.3h7v7.6h-7v11.1c0,2.1,1.1,3.1,3.9,3.1c1.1,0,1.7-0.1,2.5-0.4v7c-3.3,1-4.6,1.2-8.1,1.2
	c-6.2,0-11-1.8-11-7.8V17.3h-4.2V9.6H228.5"/>
<path class="st0" d="M275.1,29.9c-0.7,2-2.9,3.4-5.1,3.4c-3.8,0-5.7-2.4-6.1-6.5h22.5c0.6-7.9-3.7-16.9-16.4-16.9
	c-9.8,0-16.9,5.2-16.9,15.2c0,9.4,7.9,14.3,16.7,14.3c6.7,0,13.6-2.9,15.9-9.4H275.1 M263.9,21c0.4-3,2.6-5.4,5.9-5.4
	c3.3,0,5.5,2.4,5.9,5.4H263.9z"/>
<path class="st0" d="M311.2,13.1c-2.2-2.5-5.1-3.2-8.1-3.2c-9,0.2-11.6,8.6-11.6,15c0,8.9,6.3,14.3,11.9,14.3c3.7,0,6.8-1.6,8.4-4.4
	h0.1v3.2h12.6V0.4h-13.2V13.1 M313.8,24.6c0,5-2.2,7.4-5.3,7.4c-3.1,0-5.2-2.4-5.2-7.4c0-5,2.1-7.4,5.2-7.4
	C311.6,17.2,313.8,19.6,313.8,24.6z"/>
<polyline class="st0" points="129.7,87.8 129.7,57.8 120.3,57.8 120.3,49.5 148.1,49.5 148.1,57.8 138.6,57.8 138.6,87.8 
	129.7,87.8 "/>
<path class="st0" d="M150.9,87.8V49.5h10.4v15.3h-0.1c1.6-4.5,5.3-5.8,9-5.8c4.3,0,9,3.2,9.3,9.9v19H169V71.2c0-2.9-1.1-4.2-3.5-4.2
	c-2.4,0-4.2,2.4-4.2,5v15.8H150.9"/>
<path class="st0" d="M203.5,79.2c-0.7,2.1-2.8,3.4-5,3.4c-3.7,0-5.6-2.5-6-6.7h22c0.6-8.1-3.6-17.4-16-17.4
	c-9.6,0-16.5,5.4-16.5,15.6c0,9.7,7.7,14.7,16.4,14.7c6.6,0,13.3-3,15.6-9.6H203.5 M192.5,70c0.4-3.1,2.5-5.5,5.8-5.5
	c3.2,0,5.4,2.4,5.7,5.5H192.5z"/>
<path class="st0" d="M217.7,87.8V59h8.6v4.5h0.1c1.8-4.6,3.7-6.1,9.4-6.1V69c-1.1-0.6-2.1-0.8-3.2-0.8c-4.2,0-5.9,2.8-5.9,8.1v11.5
	H217.7"/>
<path class="st0" d="M249.3,67.7c0.1-2.6,2-3.6,4.3-3.6c2.2,0,4.1,0.8,4.1,3.4c0,1.9-2.1,3.3-7.2,3.3c-9.2,0-12.8,3-12.8,9.2
	c0,7.3,6.8,8.7,10.5,8.7c2.6,0,7.2-1.3,9.5-5.1h0.1c0,1,0,2.6,0,3.9h10c0-2.6,0-4.2,0-7.3V70.2c0-7.1-3.3-11.7-15.2-11.7
	c-6.5,0-12.8,1.7-14,9.2H249.3 M257.3,78.9c-0.1,2-2.3,4-5.1,4c-1.8,0-3.7-1.3-3.7-3.5c0-4.7,6.8-3.7,9.1-6.3L257.3,78.9z"/>
<path class="st0" d="M281.2,84.7c2.2,2.6,5.2,3.3,8.2,3.3c9.1-0.2,11.8-8.7,11.8-15.2c0-9-6.4-14.5-12.1-14.5
	c-3.8,0-6.9,1.6-8.5,4.4h-0.1v-3.8h-9.4v38.3h10V84.7 M281.2,73.2c0-5.1,2-7.5,4.8-7.5c2.8,0,4.7,2.4,4.7,7.5c0,5.1-1.9,7.5-4.7,7.5
	C283.2,80.7,281.2,78.2,281.2,73.2z"/>
<path class="st0" d="M323.5,79.2c-0.7,2.1-2.6,3.4-4.7,3.4c-3.5,0-5.3-2.5-5.6-6.7h20.7c0.6-8.1-3.4-17.4-15.1-17.4
	c-9,0-15.5,5.4-15.5,15.6c0,9.7,7.3,14.7,15.4,14.7c6.2,0,12.5-3,14.6-9.6H323.5 M313.1,70c0.4-3.1,2.4-5.5,5.4-5.5
	c3,0,5.1,2.4,5.4,5.5H313.1z"/>
<path class="st0" d="M365.9,58.7v28.9h-10.4v-4.9h-0.1c-1.5,4.8-5.2,6.1-9,6.1c-4.3,0-9.1-3.3-9.3-10.3V58.7h10.5V76
	c0,3,1.2,4.4,3.5,4.4c2.5,0,4.2-2.5,4.2-5.2V58.7H365.9"/>
<path class="st0" d="M373.2,58.9v-9.4h11.4v9.4h6.3v7.7h-6.3v11.2c0,2.1,1,3.1,3.5,3.1c1,0,1.5-0.1,2.2-0.4v7.1
	c-3,1-4.2,1.2-7.3,1.2c-5.5,0-9.9-1.8-9.9-7.9V66.6h-3.7v-7.7H373.2"/>
<path class="st0" d="M394.6,49.5h10v5.8h-10V49.5z M394.6,58.8h10v29h-10V58.8z"/>
<path class="st0" d="M427.9,69.6c-0.2-1.2-0.6-2.3-1.1-3c-0.6-0.7-1.4-1.1-2.6-1.1c-2.6,0-4.2,2.7-4.2,7.7c0,7.2,2.2,8.6,4.3,8.6
	c3,0,3.7-2,3.9-4.4h9.8c-0.3,4.3-2,7.1-4.6,8.9c-2.6,1.8-5.9,2.5-9.4,2.5c-8.1,0-14.5-5.5-14.5-15.3c0-7,4.9-15,14.7-15
	c6.9,0,12.7,4,13.7,11.1H427.9"/>
<path class="st0" d="M450.8,80c0.2,1.2,0.5,2.1,1.1,2.8c0.6,0.6,1.6,1,2.8,1c2.3,0,3.9-1.1,3.9-3.3c0-5.5-17,0-17-11.4
	c0-7.5,6-10.5,14.2-10.5c5.6,0,11.7,1.9,12,9.2h-9.6c0.1-1.3-0.2-2.3-0.8-2.9c-0.6-0.7-1.5-1.1-2.7-1.1c-1.4,0-3.5,0.6-3.5,2.7
	c0,6,17.2,0.4,17.2,12.5c0,8-8,10-14.1,10c-5.1,0-13.1-1.7-13.1-8.9H450.8"/>
<path class="st0" d="M17.1,119.5c-0.7-1.8-2.6-2.7-4.9-2.7c-3.1,0-5.6,2.5-5.6,5.5c0,2.8,1.7,5.5,5.6,5.5c2.4,0,4.8-1.4,5.1-3.2h1.8
	c-0.8,2.9-3.5,4.5-6.8,4.5c-4.4,0-7.4-2.9-7.4-6.7c0-3.8,3.5-6.7,7.4-6.7c3.5,0,5.9,1.5,6.6,3.9H17.1"/>
<path class="st0" d="M51.5,122.3c0,3.8,3,6.7,7.4,6.7c3.8,0,7.4-2.9,7.4-6.7c0-3.8-3-6.7-7.4-6.7C55.1,115.6,51.5,118.5,51.5,122.3
	 M64.4,122.3c0,3-2.4,5.5-5.6,5.5c-3.8,0-5.6-2.7-5.6-5.5c0-3,2.4-5.5,5.6-5.5C62.7,116.8,64.4,119.5,64.4,122.3z"/>
<path class="st0" d="M111.4,128.7c-0.6-0.5-0.8-1.3-0.8-2.2V125c0-1.8-0.4-2.3-2.3-2.7v0c1.5-0.4,2.5-1.5,2.5-2.8
	c0-2.3-1.7-3.5-4.3-3.5h-6.6v12.7h1.7V123h4.9c1.9,0,2.5,0.5,2.5,1.9v1.9c0,1,0.2,1.4,0.5,1.9H111.4 M101.6,117.2h4.7
	c1.6,0,2.9,0.7,2.9,2.3c0,1.5-1.3,2.3-2.9,2.3h-4.7V117.2z"/>
<path class="st0" d="M144.9,128.7h1.7v-4.9h3.8c3.1,0,5.2-1.4,5.2-3.9c0-2.5-2.2-3.9-5.2-3.9h-5.5V128.7 M146.5,117.2h4
	c2,0,3.4,0.8,3.4,2.7c0,1.9-1.4,2.7-3.4,2.7h-4V117.2z"/>
<path class="st0" d="M187.9,122.3c0,3.8,3,6.7,7.4,6.7c3.8,0,7.4-2.9,7.4-6.7c0-3.8-3-6.7-7.4-6.7
	C191.5,115.6,187.9,118.5,187.9,122.3 M200.8,122.3c0,3-2.4,5.5-5.6,5.5c-3.8,0-5.6-2.7-5.6-5.5c0-3,2.4-5.5,5.6-5.5
	C199.1,116.8,200.8,119.5,200.8,122.3z"/>
<path class="st0" d="M247.8,128.7c-0.6-0.5-0.8-1.3-0.8-2.2V125c0-1.8-0.4-2.3-2.3-2.7v0c1.5-0.4,2.5-1.5,2.5-2.8
	c0-2.3-1.7-3.5-4.3-3.5h-6.6v12.7h1.7V123h4.9c1.9,0,2.5,0.5,2.5,1.9v1.9c0,1,0.2,1.4,0.5,1.9H247.8 M238,117.2h4.7
	c1.6,0,2.9,0.7,2.9,2.3c0,1.5-1.3,2.3-2.9,2.3H238V117.2z"/>
<path class="st0" d="M279.4,128.7h1.8l1.4-2.9h8l1.4,2.9h1.8l-6.3-12.7h-1.5L279.4,128.7 M286.7,117.6l3.4,7h-6.9L286.7,117.6z"/>
<polyline class="st0" points="334.3,116 334.3,117.3 329.6,117.3 329.6,128.7 327.9,128.7 327.9,117.3 323.2,117.3 323.2,116 
	334.3,116 "/>
<g>
	<rect x="367.1" y="116" class="st0" width="1.1" height="12.7"/>
</g>
<path class="st0" d="M401.8,122.3c0,3.8,3,6.7,7.4,6.7c3.8,0,7.4-2.9,7.4-6.7c0-3.8-3-6.7-7.4-6.7
	C405.4,115.6,401.8,118.5,401.8,122.3 M414.8,122.3c0,3-2.4,5.5-5.6,5.5c-3.8,0-5.6-2.7-5.6-5.5c0-3,2.4-5.5,5.6-5.5
	C413,116.8,414.8,119.5,414.8,122.3z"/>
<polyline class="st0" points="449.9,116 451.5,116 460.9,126.3 461,126.3 461,116 462.6,116 462.6,128.7 461,128.7 451.6,118.2 
	451.5,118.2 451.5,128.7 449.9,128.7 449.9,116 "/>
<line class="st1" x1="5.2" y1="104.1" x2="464.8" y2="104.1"/>
<g>
	<path class="st0" d="M39.1,27.1H17.8c-1.3,2.1-2.5,4.1-3.6,6h20.8C35.8,30.3,37.3,28.3,39.1,27.1z"/>
	<path class="st0" d="M34.8,35.9H12.7c-1.2,2.1-2.2,4.1-3.2,6h26.8C35.2,39.2,34.9,37.1,34.8,35.9z"/>
	<path class="st0" d="M37.5,44.7H8.1c-1,2.1-1.9,4-2.6,5.8h35.9C39.7,48.5,38.5,46.5,37.5,44.7z"/>
	<path class="st0" d="M43.9,53.4H4.4c-0.9,2.3-1.6,4.4-2.2,6.3H51C48.1,57.5,45.8,55.4,43.9,53.4z"/>
	<path class="st0" d="M53.1,62.4H1.4c-0.7,2.5-1,4.5-1.2,6h52.9C53.1,65.5,53.1,63.5,53.1,62.4z"/>
	<path class="st0" d="M17.4,94.8c7.9,0,14.5-2.7,19.6-5.9H5.4C10.4,94.4,17.4,94.8,17.4,94.8z"/>
	<path class="st0" d="M42.8,1.5c-2.8,0-6.1,2.1-9.1,4.9H51C48.1,1.3,42.8,1.5,42.8,1.5z"/>
	<path class="st0" d="M47.2,80.3H1c0.6,2.3,1.4,4.2,2.4,5.8H41C44.1,83.7,46.2,81.5,47.2,80.3z"/>
	<path class="st0" d="M71.2,1.5c0,0-5.2-0.2-8.2,4.9h17.3C77.3,3.5,74.1,1.5,71.2,1.5z"/>
	<path class="st0" d="M53,14.2c-0.1-2-0.3-3.6-0.8-5H30.8c-1.9,2-3.6,4.1-5.1,6h27.2C52.9,14.6,53,14.2,53,14.2z"/>
	<path class="st0" d="M96.7,94.8c0,0,7-0.4,11.9-5.9H77C82.1,92.1,88.8,94.8,96.7,94.8z"/>
	<path class="st0" d="M52.9,18H23.7c-1.5,2-2.3,3.4-2.3,3.4c-0.6,1-1.2,1.9-1.8,2.8h33.3C52.8,22,52.8,19.8,52.9,18z"/>
	<path class="st0" d="M52.9,71.2H0c0,0.3,0,0.5,0,0.5c0,2.1,0.2,4,0.4,5.7h49.1C50.7,75.9,52.3,73.5,52.9,71.2z"/>
	<path class="st0" d="M79,33.1h20.8c-1.1-1.9-2.3-3.9-3.6-6H74.9C76.7,28.3,78.2,30.3,79,33.1z"/>
	<path class="st0" d="M61.2,24.3h33.3c-0.6-0.9-1.2-1.9-1.8-2.8c0,0-0.9-1.4-2.3-3.4H61.2C61.2,19.8,61.2,22,61.2,24.3z"/>
	<path class="st0" d="M64.5,77.5h49.1c0.3-1.7,0.4-3.6,0.4-5.7c0,0,0-0.2,0-0.5H61.2C61.8,73.5,63.3,75.9,64.5,77.5z"/>
	<path class="st0" d="M77.8,41.9h26.8c-1-1.9-2-3.9-3.2-6H79.3C79.2,37.1,78.9,39.2,77.8,41.9z"/>
	<path class="st0" d="M73,86.1h37.6c1-1.7,1.8-3.6,2.4-5.8H66.8C67.8,81.5,70,83.7,73,86.1z"/>
	<path class="st0" d="M72.6,50.6h35.9c-0.8-1.8-1.6-3.8-2.6-5.8H76.5C75.6,46.5,74.3,48.5,72.6,50.6z"/>
	<path class="st0" d="M63.1,59.6h48.8c-0.6-1.9-1.3-3.9-2.2-6.3H70.2C68.2,55.4,65.9,57.5,63.1,59.6z"/>
	<path class="st0" d="M60.9,68.4h52.9c-0.2-1.5-0.5-3.5-1.2-6H60.9C60.9,63.5,60.9,65.5,60.9,68.4z"/>
	<path class="st0" d="M61.8,9.2c-0.4,1.4-0.7,3.1-0.8,5c0,0,0,0.4,0,1h27.2c-1.5-1.9-3.2-4-5.1-6H61.8z"/>
</g>
</svg>
