<?xml version="1.0" encoding="utf-8"?>
<!-- Generator: Adobe Illustrator 27.2.0, SVG Export Plug-In . SVG Version: 6.00 Build 0)  -->
<svg version="1.1" id="Layer_2_00000052824261967194773410000018339703495294146187_"
	 xmlns="http://www.w3.org/2000/svg" xmlns:xlink="http://www.w3.org/1999/xlink" x="0px" y="0px" viewBox="0 0 62.3 73.6"
	 style="enable-background:new 0 0 62.3 73.6;" xml:space="preserve">
<style type="text/css">
	.st0{fill:#FFFFFF;}
</style>
<g id="Layer_1-2">
	<g>
		<path class="st0" d="M0,19.6V54l31.1,19.6L62.3,54V19.6L31.1,0L0,19.6z M60.1,20l-14.2,9l-29-18.3l14.2-9L60.1,20L60.1,20z
			 M31.1,38.3L2.2,20l13.3-8.4l29,18.3L31.1,38.3L31.1,38.3z M1.5,21.4l28.9,18.2v31.8L1.5,53.2C1.5,53.2,1.5,21.4,1.5,21.4z
			 M31.9,71.4V39.6l28.9-18.2v31.8L31.9,71.4z"/>
		<path class="st0" d="M35.5,48.1l6.9-4.1v-7.3l-6.9,4.1V48.1L35.5,48.1z M37,41.6l3.9-2.3v3.8L37,45.5V41.6L37,41.6z"/>
	</g>
</g>
</svg>
