<?xml version="1.0" encoding="utf-8"?>
<!-- Generator: Adobe Illustrator 27.2.0, SVG Export Plug-In . SVG Version: 6.00 Build 0)  -->
<svg version="1.1" id="Layer_2_00000018232327840295102410000010728829993383084446_"
	 xmlns="http://www.w3.org/2000/svg" xmlns:xlink="http://www.w3.org/1999/xlink" x="0px" y="0px" viewBox="0 0 52.9 72.8"
	 style="enable-background:new 0 0 52.9 72.8;" xml:space="preserve">
<style type="text/css">
	.st0{fill:#FFFFFF;}
</style>
<g id="Layer_1-2">
	<path class="st0" d="M45.8,58.6h-3.9V48l0,0V27.1l0,0v-6c0-2.6-2.2-4.8-4.8-4.8h-1.9v-4.7h3.5V5.8C38.8,2.6,36.2,0,33,0H8.9
		C5.8,0,3.2,2.6,3.2,5.8v5.9h3.5v4.7H4.8c-2.7,0-4.8,2.2-4.8,4.8v40.6c0,2.6,2.2,4.8,4.8,4.8h18.9c0.4,3.5,3.4,6.3,7,6.3h15.1
		c3.9,0,7.1-3.2,7.1-7.1S49.8,58.6,45.8,58.6L45.8,58.6z M4.7,5.8c0-2.3,1.9-4.2,4.3-4.2H33c2.3,0,4.2,1.9,4.2,4.2v4.4H4.7
		C4.7,10.1,4.7,5.8,4.7,5.8z M40.4,46.5H10.2V28.6h30.3C40.4,28.6,40.4,46.5,40.4,46.5z M1.5,61.6V21.1c0-1.8,1.5-3.3,3.3-3.3h3.4
		v-6.2h25.5v6.2h3.4c1.8,0,3.3,1.5,3.3,3.3v6H8.7V48h31.8v10.7h-9.7c-0.2,0-0.5,0-0.7,0c-0.1,0-0.1,0-0.2,0c-0.1,0-0.3,0-0.5,0.1
		c-0.1,0-0.2,0-0.3,0.1c-0.1,0-0.3,0.1-0.4,0.1c-0.1,0-0.2,0.1-0.3,0.1c-0.1,0-0.2,0.1-0.4,0.1c-0.1,0-0.2,0.1-0.3,0.1
		c-0.1,0-0.2,0.1-0.3,0.2c-0.1,0-0.2,0.1-0.3,0.1c-0.1,0.1-0.2,0.1-0.3,0.2c-0.1,0-0.2,0.1-0.2,0.2c-0.1,0.1-0.2,0.1-0.3,0.2
		c-0.1,0.1-0.1,0.1-0.2,0.2c-0.1,0.1-0.2,0.2-0.3,0.2c-0.1,0.1-0.1,0.1-0.2,0.2c-0.1,0.1-0.2,0.2-0.2,0.3c-0.1,0.1-0.1,0.2-0.2,0.2
		c-0.1,0.1-0.1,0.2-0.2,0.3c-0.1,0.1-0.1,0.2-0.2,0.2c-0.1,0.1-0.1,0.2-0.2,0.3c0,0.1-0.1,0.2-0.1,0.2c-0.1,0.1-0.1,0.2-0.2,0.4
		c0,0.1-0.1,0.2-0.1,0.2c-0.1,0.1-0.1,0.3-0.2,0.4c0,0.1,0,0.1-0.1,0.2c-0.1,0.2-0.1,0.4-0.1,0.6c0,0,0,0.1,0,0.1
		c0,0.2-0.1,0.4-0.1,0.7H4.8C3,64.9,1.5,63.5,1.5,61.6L1.5,61.6z M37.5,71.3h-6.8c-3.1,0-5.6-2.5-5.6-5.6s2.5-5.6,5.6-5.6h6.8V71.3
		L37.5,71.3z M45.8,71.3H39V60.1h6.8c3.1,0,5.6,2.5,5.6,5.6C51.4,68.8,48.9,71.3,45.8,71.3L45.8,71.3z"/>
</g>
</svg>
