<?xml version="1.0" encoding="utf-8"?>
<!-- Generator: Adobe Illustrator 27.2.0, SVG Export Plug-In . SVG Version: 6.00 Build 0)  -->
<svg version="1.1" id="Layer_2_00000114057568322340416880000010287344002541941912_"
	 xmlns="http://www.w3.org/2000/svg" xmlns:xlink="http://www.w3.org/1999/xlink" x="0px" y="0px" viewBox="0 0 62.3 62.3"
	 style="enable-background:new 0 0 62.3 62.3;" xml:space="preserve">
<style type="text/css">
	.st0{fill:#FFFFFF;}
</style>
<g id="Layer_1-2">
	<g>
		<path class="st0" d="M0,10.7v51.5h62.3V0H0V10.7z M60.8,60.8H1.5v-50h59.3V60.8z M1.5,1.5h59.3v7.7H1.5V1.5z"/>
		<path class="st0" d="M16.4,55.1h20.1v-9.3H55V16.5H16.4v9.3H7.2v29.3L16.4,55.1L16.4,55.1z M25.7,53.6h-7.8v-7.8h7.8V53.6z
			 M17.9,36.6h7.8v7.8h-7.8V36.6z M17.9,27.3h7.8v7.8h-7.8C17.9,35.1,17.9,27.3,17.9,27.3z M44.2,35.1h-7.8v-7.8h7.8V35.1z M35,35.1
			h-7.8v-7.8H35V35.1z M35,44.4h-7.8v-7.8H35V44.4z M35,53.6h-7.8v-7.8H35V53.6z M44.2,44.4h-7.8v-7.8h7.8V44.4z M53.5,44.4h-7.8
			v-7.8h7.8V44.4z M53.5,35.1h-7.8v-7.8h7.8V35.1z M45.8,18h7.8v7.8h-7.8V18z M36.5,18h7.8v7.8h-7.8V18z M27.2,18H35v7.8h-7.8
			C27.2,25.8,27.2,18,27.2,18z M17.9,18h7.8v7.8h-7.8V18z M8.6,27.3h7.8v7.8H8.6C8.6,35.1,8.6,27.3,8.6,27.3z M8.6,36.6h7.8v7.8H8.6
			C8.6,44.4,8.6,36.6,8.6,36.6z M16.4,45.9v7.8H8.6v-7.8H16.4z"/>
	</g>
</g>
</svg>
